<svg width="28" height="23" viewBox="0 0 28 23" fill="none" xmlns="http://www.w3.org/2000/svg">
<path d="M25.375 11.1238L21 11.1238L21 14.302C21 16.055 22.5695 17.4802 24.5 17.4802H24.9375C25.6648 17.4802 26.25 18.0116 26.25 18.6721L26.25 21.0557C26.25 21.7162 25.6648 22.2476 24.9375 22.2476L24.5 22.2476C19.6656 22.2476 15.75 18.6919 15.75 14.302L15.75 2.38369C15.75 1.06771 16.9258 2.86102e-05 18.375 2.86102e-05L25.375 2.86102e-05C26.8242 2.86102e-05 28 1.06771 28 2.38369L28 8.74013C28 10.0561 26.8242 11.1238 25.375 11.1238ZM9.625 11.1238L5.25 11.1238L5.25 14.302C5.25 16.055 6.81953 17.4802 8.75 17.4802H9.1875C9.91484 17.4802 10.5 18.0116 10.5 18.6721L10.5 21.0557C10.5 21.7162 9.91484 22.2476 9.1875 22.2476H8.75C3.91563 22.2476 0 18.6919 0 14.302L0 2.38369C0 1.06771 1.17578 2.86102e-05 2.625 2.86102e-05L9.625 2.86102e-05C11.0742 2.86102e-05 12.25 1.06771 12.25 2.38369L12.25 8.74013C12.25 10.0561 11.0742 11.1238 9.625 11.1238Z" fill="#DEE4EB"/>
</svg>
