<svg width="1388" height="1093" viewBox="0 0 1388 1093" fill="none" xmlns="http://www.w3.org/2000/svg">
<path fill-rule="evenodd" clip-rule="evenodd" d="M383.978 0C332.515 30.4248 298 86.4779 298 150.592V574.736C298 671.285 376.268 749.552 472.816 749.552H896.96C993.508 749.552 1071.78 671.285 1071.78 574.736V150.592C1071.78 86.4803 1037.26 30.429 985.804 0.00343386V34.5277C1020.65 61.2412 1043.12 103.293 1043.12 150.592V574.736C1043.12 655.457 977.681 720.894 896.96 720.894H472.816C392.095 720.894 326.658 655.457 326.658 574.736V150.592C326.658 103.29 349.129 61.2366 383.978 34.5233V0Z" fill="black"/>
<path d="M888 433C947.167 406 1082.8 365.6 1152 420C1097.17 448.333 967.6 490.6 888 433Z" stroke="black" stroke-width="10"/>
<path d="M983.868 135.809C986.75 174.238 983.999 257.877 949.936 284.998C936.18 241.019 923.709 149.61 983.868 135.809Z" stroke="black" stroke-width="10"/>
<path d="M885.5 434.5C851.833 414.5 794.6 351.2 835 258" stroke="black" stroke-width="10"/>
<path d="M835 259.5C858.667 287.333 901.9 361.3 885.5 434.5" stroke="black" stroke-width="10"/>
<rect x="447" y="450" width="193" height="346" rx="20" stroke="black" stroke-width="20"/>
<path fill-rule="evenodd" clip-rule="evenodd" d="M1030.63 207.007C1089.61 177.63 1153.66 189.799 1189.87 204.147L1188.39 207.866C1153.1 193.881 1095.5 188.265 1037.66 217.072C979.891 245.842 925.99 308.403 889.5 432.727C882.703 480.759 866.947 564.11 829.5 626C792.018 687.947 728.181 729.443 650.259 734.503L650 730.511C726.078 725.571 780.463 675.233 817.606 613.846C854.746 552.465 874.427 480.363 881.149 432.727L881.17 432.583L881.21 432.444C917.923 307.26 971.594 236.409 1030.63 207.007Z" fill="black"/>
<path d="M42.15 1055V1016L44.7 1022.9L0.15 950H12L51.15 1014.05H44.85L84 950H95.1L50.55 1022.9L53.1 1016V1055H42.15ZM153.674 1055.9C145.774 1055.9 138.424 1054.6 131.624 1052C124.924 1049.3 119.074 1045.55 114.074 1040.75C109.174 1035.85 105.324 1030.2 102.524 1023.8C99.8238 1017.3 98.4738 1010.2 98.4738 1002.5C98.4738 994.8 99.8238 987.75 102.524 981.35C105.324 974.85 109.174 969.2 114.074 964.4C119.074 959.5 124.924 955.75 131.624 953.15C138.324 950.45 145.674 949.1 153.674 949.1C161.574 949.1 168.874 950.45 175.574 953.15C182.274 955.75 188.074 959.45 192.974 964.25C197.974 969.05 201.824 974.7 204.524 981.2C207.324 987.7 208.724 994.8 208.724 1002.5C208.724 1010.2 207.324 1017.3 204.524 1023.8C201.824 1030.3 197.974 1035.95 192.974 1040.75C188.074 1045.55 182.274 1049.3 175.574 1052C168.874 1054.6 161.574 1055.9 153.674 1055.9ZM153.674 1046C159.974 1046 165.774 1044.95 171.074 1042.85C176.474 1040.65 181.124 1037.6 185.024 1033.7C189.024 1029.7 192.124 1025.1 194.324 1019.9C196.524 1014.6 197.624 1008.8 197.624 1002.5C197.624 996.2 196.524 990.45 194.324 985.25C192.124 979.95 189.024 975.35 185.024 971.45C181.124 967.45 176.474 964.4 171.074 962.3C165.774 960.1 159.974 959 153.674 959C147.374 959 141.524 960.1 136.124 962.3C130.724 964.4 126.024 967.45 122.024 971.45C118.124 975.35 115.024 979.95 112.724 985.25C110.524 990.45 109.424 996.2 109.424 1002.5C109.424 1008.7 110.524 1014.45 112.724 1019.75C115.024 1025.05 118.124 1029.7 122.024 1033.7C126.024 1037.6 130.724 1040.65 136.124 1042.85C141.524 1044.95 147.374 1046 153.674 1046ZM275.904 1055.9C262.504 1055.9 251.954 1052.05 244.254 1044.35C236.554 1036.65 232.704 1025.25 232.704 1010.15V950H243.804V1009.7C243.804 1022.1 246.604 1031.25 252.204 1037.15C257.804 1043.05 265.704 1046 275.904 1046C286.204 1046 294.154 1043.05 299.754 1037.15C305.354 1031.25 308.154 1022.1 308.154 1009.7V950H318.954V1010.15C318.954 1025.25 315.104 1036.65 307.404 1044.35C299.804 1052.05 289.304 1055.9 275.904 1055.9ZM352.403 1055V950H391.703C400.603 950 408.253 951.45 414.653 954.35C421.053 957.15 425.953 961.25 429.353 966.65C432.853 971.95 434.603 978.4 434.603 986C434.603 993.4 432.853 999.8 429.353 1005.2C425.953 1010.5 421.053 1014.6 414.653 1017.5C408.253 1020.3 400.603 1021.7 391.703 1021.7H358.553L363.503 1016.6V1055H352.403ZM424.103 1055L397.103 1016.9H409.103L436.253 1055H424.103ZM363.503 1017.5L358.553 1012.25H391.403C401.903 1012.25 409.853 1009.95 415.253 1005.35C420.753 1000.75 423.503 994.3 423.503 986C423.503 977.6 420.753 971.1 415.253 966.5C409.853 961.9 401.903 959.6 391.403 959.6H358.553L363.503 954.35V1017.5Z" fill="black"/>
<path d="M536.05 1055.9C528.25 1055.9 520.75 1054.65 513.55 1052.15C506.45 1049.55 500.95 1046.25 497.05 1042.25L501.4 1033.7C505.1 1037.3 510.05 1040.35 516.25 1042.85C522.55 1045.25 529.15 1046.45 536.05 1046.45C542.65 1046.45 548 1045.65 552.1 1044.05C556.3 1042.35 559.35 1040.1 561.25 1037.3C563.25 1034.5 564.25 1031.4 564.25 1028C564.25 1023.9 563.05 1020.6 560.65 1018.1C558.35 1015.6 555.3 1013.65 551.5 1012.25C547.7 1010.75 543.5 1009.45 538.9 1008.35C534.3 1007.25 529.7 1006.1 525.1 1004.9C520.5 1003.6 516.25 1001.9 512.35 999.8C508.55 997.7 505.45 994.95 503.05 991.55C500.75 988.05 499.6 983.5 499.6 977.9C499.6 972.7 500.95 967.95 503.65 963.65C506.45 959.25 510.7 955.75 516.4 953.15C522.1 950.45 529.4 949.1 538.3 949.1C544.2 949.1 550.05 949.95 555.85 951.65C561.65 953.25 566.65 955.5 570.85 958.4L567.1 967.25C562.6 964.25 557.8 962.05 552.7 960.65C547.7 959.25 542.85 958.55 538.15 958.55C531.85 958.55 526.65 959.4 522.55 961.1C518.45 962.8 515.4 965.1 513.4 968C511.5 970.8 510.55 974 510.55 977.6C510.55 981.7 511.7 985 514 987.5C516.4 990 519.5 991.95 523.3 993.35C527.2 994.75 531.45 996 536.05 997.1C540.65 998.2 545.2 999.4 549.7 1000.7C554.3 1002 558.5 1003.7 562.3 1005.8C566.2 1007.8 569.3 1010.5 571.6 1013.9C574 1017.3 575.2 1021.75 575.2 1027.25C575.2 1032.35 573.8 1037.1 571 1041.5C568.2 1045.8 563.9 1049.3 558.1 1052C552.4 1054.6 545.05 1055.9 536.05 1055.9ZM609.285 996.95H664.785V1006.4H609.285V996.95ZM610.485 1045.4H673.635V1055H599.385V950H671.385V959.6H610.485V1045.4ZM699.727 1055V950H708.877L781.327 1041.2H776.527V950H787.477V1055H778.327L706.027 963.8H710.827V1055H699.727ZM842.148 1055V959.6H805.248V950H890.148V959.6H853.248V1055H842.148ZM907.881 1055V950H918.981V1055H907.881ZM953.145 1055V950H962.295L1010.29 1031.9H1005.49L1053.04 950H1062.19V1055H1051.54V966.65H1054.09L1010.29 1041.65H1005.04L960.945 966.65H963.795V1055H953.145ZM1106.31 996.95H1161.81V1006.4H1106.31V996.95ZM1107.51 1045.4H1170.66V1055H1096.41V950H1168.41V959.6H1107.51V1045.4ZM1196.75 1055V950H1205.9L1278.35 1041.2H1273.55V950H1284.5V1055H1275.35L1203.05 963.8H1207.85V1055H1196.75ZM1339.17 1055V959.6H1302.27V950H1387.17V959.6H1350.27V1055H1339.17Z" fill="black"/>
</svg>
